<svg xmlns="http://www.w3.org/2000/svg" viewBox="0 0 12 12"><path d="M6,1.08H8.42a3.31,3.31,0,0,1,1.12.2,2.11,2.11,0,0,1,.69.45,2.11,2.11,0,0,1,.45.69,3.31,3.31,0,0,1,.2,1.12V8.38a3.31,3.31,0,0,1-.2,1.12,2,2,0,0,1-1.14,1.14,3.31,3.31,0,0,1-1.12.2H3.58a3.31,3.31,0,0,1-1.12-.2,2.11,2.11,0,0,1-.69-.45,2.11,2.11,0,0,1-.45-.69,3.31,3.31,0,0,1-.2-1.12V3.54a3.31,3.31,0,0,1,.2-1.12,2.11,2.11,0,0,1,.45-.69,2.11,2.11,0,0,1,.69-.45,3.31,3.31,0,0,1,1.12-.2C4.21,1.09,4.4,1.08,6,1.08ZM6,0H3.53A4.59,4.59,0,0,0,2.07.31,3,3,0,0,0,1,1,2.89,2.89,0,0,0,.3,2.06,4.64,4.64,0,0,0,0,3.53V8.47A4.59,4.59,0,0,0,.31,9.93,3,3,0,0,0,1,11a2.89,2.89,0,0,0,1.06.7,4.64,4.64,0,0,0,1.47.3H8.47a4.54,4.54,0,0,0,1.46-.27A3.17,3.17,0,0,0,11.69,10,4.56,4.56,0,0,0,12,8.47V3.53a4.54,4.54,0,0,0-.27-1.46A2.92,2.92,0,0,0,11,1,3,3,0,0,0,9.93.31,4.59,4.59,0,0,0,8.47,0Z" fill="#0b120b"/><path d="M9.08,3.64a.72.72,0,1,0-.72-.72.72.72,0,0,0,.72.72Z" fill="#0b120b"/><path d="M6,2.92a3,3,0,0,0-1.71.52A3.13,3.13,0,0,0,3.15,4.82,3.09,3.09,0,0,0,8.56,7.71,3.08,3.08,0,0,0,6,2.92ZM6,8A2,2,0,1,1,8,6,2,2,0,0,1,6,8Z" fill="#0b120b"/></svg>