<svg xmlns="http://www.w3.org/2000/svg" viewBox="0 0 12 12"><path d="M6,1.08c1.6,0,1.79,0,2.42,0a3.31,3.31,0,0,1,1.12.2,2.11,2.11,0,0,1,.69.45,2.11,2.11,0,0,1,.45.69,3.31,3.31,0,0,1,.2,1.12c0,.63,0,.82,0,2.42s0,1.79,0,2.42a3.31,3.31,0,0,1-.2,1.12,2,2,0,0,1-1.14,1.14,3.31,3.31,0,0,1-1.12.2c-.63,0-.82,0-2.42,0s-1.79,0-2.42,0a3.31,3.31,0,0,1-1.12-.2,2.11,2.11,0,0,1-.69-.45,2.11,2.11,0,0,1-.45-.69,3.31,3.31,0,0,1-.2-1.12c0-.63,0-.82,0-2.42s0-1.79,0-2.42a3.31,3.31,0,0,1,.2-1.12,2.11,2.11,0,0,1,.45-.69,2.11,2.11,0,0,1,.69-.45,3.31,3.31,0,0,1,1.12-.2C4.21,1.09,4.4,1.08,6,1.08ZM6,0C4.37,0,4.17,0,3.53,0A4.54,4.54,0,0,0,2.07.31,3,3,0,0,0,1,1a3,3,0,0,0-.7,1.06A4.54,4.54,0,0,0,0,3.53C0,4.17,0,4.37,0,6S0,7.83,0,8.47A4.54,4.54,0,0,0,.31,9.93,3,3,0,0,0,1,11a3,3,0,0,0,1.06.7A4.54,4.54,0,0,0,3.53,12c.64,0,.84,0,2.47,0s1.83,0,2.47,0a4.54,4.54,0,0,0,1.46-.27,3.17,3.17,0,0,0,1.76-1.76A4.54,4.54,0,0,0,12,8.47c0-.64,0-.84,0-2.47s0-1.83,0-2.47a4.54,4.54,0,0,0-.27-1.46A3,3,0,0,0,11,1,3,3,0,0,0,9.93.31,4.54,4.54,0,0,0,8.47,0C7.83,0,7.63,0,6,0Z" fill="#0b120b"/><path d="M9.08,3.64a.72.72,0,1,0-.72-.72A.72.72,0,0,0,9.08,3.64Z" fill="#0b120b"/><path d="M6,2.92a3,3,0,0,0-1.71.52A3.13,3.13,0,0,0,3.15,4.82a3.09,3.09,0,0,0,4,4A3.13,3.13,0,0,0,8.56,7.71,3.08,3.08,0,0,0,6,2.92ZM6,8A2,2,0,1,1,8,6,2,2,0,0,1,6,8Z" fill="#0b120b"/></svg>