<svg xmlns="http://www.w3.org/2000/svg" viewBox="0 0 74 64"><path d="M3,0H71a3,3,0,0,1,3,3h0a3,3,0,0,1-3,3H3A3,3,0,0,1,0,3H0A3,3,0,0,1,3,0Z" fill="#edf1f5"/><path d="M3,0H36a3,3,0,0,1,3,3h0a3,3,0,0,1-3,3H3A3,3,0,0,1,0,3H0A3,3,0,0,1,3,0Z" fill="#f69799"/><path d="M3,18H71a3,3,0,0,1,3,3h0a3,3,0,0,1-3,3H3a3,3,0,0,1-3-3H0A3,3,0,0,1,3,18Z" fill="#edf1f5"/><path d="M3,18H48a3,3,0,0,1,3,3h0a3,3,0,0,1-3,3H3a3,3,0,0,1-3-3H0A3,3,0,0,1,3,18Z" fill="#f69799"/><path d="M3,36H71a3,3,0,0,1,3,3h0a3,3,0,0,1-3,3H3a3,3,0,0,1-3-3H0A3,3,0,0,1,3,36Z" fill="#edf1f5"/><path d="M3,36H30a3,3,0,0,1,3,3h0a3,3,0,0,1-3,3H3a3,3,0,0,1-3-3H0A3,3,0,0,1,3,36Z" fill="#f69799"/><path d="M27,58H47a3,3,0,0,1,3,3h0a3,3,0,0,1-3,3H27a3,3,0,0,1-3-3h0A3,3,0,0,1,27,58Z" fill="#edf1f5"/></svg>