<svg width="11" height="9" viewBox="0 0 11 9" fill="none" xmlns="http://www.w3.org/2000/svg">
<path d="M11 1.06909C10.5955 1.24483 10.1553 1.37131 9.70184 1.42057C10.1726 1.1389 10.5251 0.69391 10.6933 0.169088C10.2516 0.433748 9.76761 0.619332 9.26295 0.717609C9.05202 0.490514 8.79692 0.3096 8.51354 0.18614C8.23015 0.0626794 7.92455 -0.000681369 7.61579 5.52568e-06C6.36654 5.52568e-06 5.36186 1.01983 5.36186 2.27131C5.36186 2.44705 5.38301 2.62279 5.41738 2.79187C3.54681 2.69335 1.8785 1.79335 0.769379 0.41539C0.567285 0.763029 0.461381 1.15886 0.462685 1.56169C0.462685 2.34986 0.860594 3.04483 1.46737 3.45355C1.10979 3.43937 0.760578 3.34039 0.448143 3.16465V3.19261C0.448143 4.2963 1.22281 5.21095 2.25526 5.4213C2.0614 5.47202 1.86199 5.49796 1.6617 5.49852C1.51496 5.49852 1.37616 5.48388 1.23603 5.46391C1.52157 6.36391 2.35308 7.0176 3.34323 7.03891C2.56856 7.65 1.59825 8.00947 0.544646 8.00947C0.355606 8.00947 0.181108 8.00281 0 7.98151C0.999399 8.62722 2.18519 9 3.4622 9C7.60786 9 9.87634 5.54113 9.87634 2.53891C9.87634 2.44039 9.87634 2.34187 9.86973 2.24335C10.3086 1.91983 10.6933 1.51909 11 1.06909Z" fill="#0B120B"/>
</svg>
